<?xml version="1.0" encoding="UTF-8" standalone="no"?>
<svg width="200px" height="45px" viewBox="0 0 200 45" version="1.1" xmlns="http://www.w3.org/2000/svg" xmlns:xlink="http://www.w3.org/1999/xlink" xmlns:sketch="http://www.bohemiancoding.com/sketch/ns">
    <!-- Generator: Sketch 3.3.3 (12072) - http://www.bohemiancoding.com/sketch -->
    <title>nav-logo</title>
    <desc>Created with Sketch.</desc>
    <defs></defs>
    <g id="Page-1" stroke="none" stroke-width="1" fill="none" fill-rule="evenodd" sketch:type="MSPage">
        <g id="nav-logo" sketch:type="MSArtboardGroup" fill="#FFFFFF">
            <g id="Group" sketch:type="MSLayerGroup" transform="translate(3.000000, 1.000000)">
                <g transform="translate(40.312748, 15.826741)" id="Shape" sketch:type="MSShapeGroup">
                    <path d="M-8.8817842e-15,16.9557401 L1.37000815,15.3685689 C3.41085936,17.1751008 5.36785519,18.0783668 8.08010481,18.0783668 C10.7082214,18.0783668 12.4416954,16.7097408 12.4416954,14.8211185 L12.4416954,14.766754 C12.4416954,12.987948 11.4631975,11.9748657 7.35261771,11.1262361 C2.85163836,10.1686056 0.782742799,8.74534335 0.782742799,5.5976395 L0.782742799,5.54245954 C0.782742799,2.53229785 3.49471475,0.315585852 7.21267363,0.315585852 C10.064312,0.315585852 12.1057185,1.10930738 14.0907587,2.66875271 L12.804606,4.33882978 C10.9872765,2.88811342 9.16994712,2.25884447 7.15714026,2.25884447 C4.61260141,2.25884447 2.99130478,3.62747045 2.99130478,5.35191201 L2.99130478,5.4062765 C2.99130478,7.21280843 3.99756938,8.22561884 8.30334894,9.12806934 C12.6649395,10.0590612 14.6780241,11.619322 14.6780241,14.5476651 L14.6780241,14.6028451 C14.6780241,17.8870038 11.8821967,20.0218972 7.99569409,20.0218972 C4.89248958,20.0213536 2.34850606,19.0085432 -8.8817842e-15,16.9557401 L-8.8817842e-15,16.9557401 Z"></path>
                    <path d="M18.3140712,10.2226983 L18.3140712,10.1683338 C18.3140712,4.74873802 22.4518624,0.260134075 28.2115055,0.260134075 C31.7620312,0.260134075 33.8870155,1.49148973 35.8437337,3.29829348 L34.3337814,4.88600835 C32.6844405,3.35320161 30.8390667,2.25857265 28.1831834,2.25857265 C23.8499149,2.25857265 20.6067663,5.70745576 20.6067663,10.1131539 L20.6067663,10.1683338 C20.6067663,14.6023014 23.8776815,18.0783668 28.1831834,18.0783668 C30.8673887,18.0783668 32.6289071,17.0652846 34.5020475,15.3142044 L35.9556334,16.7097408 C33.9147822,18.7353616 31.6781759,20.0765336 28.1273724,20.0765336 C22.4793514,20.0762617 18.3140712,15.7243845 18.3140712,10.2226983 L18.3140712,10.2226983 Z"></path>
                    <path d="M40.0104021,0.589039226 L42.2189641,0.589039226 L42.2189641,19.7473566 L40.0104021,19.7473566 L40.0104021,0.589039226 L40.0104021,0.589039226 Z"></path>
                    <path d="M47.5318413,0.589039226 L62.4336648,0.589039226 L62.4336648,4.42064833 L51.8373432,4.42064833 L51.8373432,8.49852857 L61.1752787,8.49852857 L61.1752787,12.3306813 L51.8373432,12.3306813 L51.8373432,19.7476284 L47.5318413,19.7476284 L47.5318413,0.589039226 L47.5318413,0.589039226 Z"></path>
                    <path d="M70.3468919,0.451768894 L74.3166946,0.451768894 L82.7044542,19.7473566 L78.2031972,19.7473566 L76.4139121,15.449572 L68.1383299,15.449572 L66.3490448,19.7473566 L61.9594099,19.7473566 L70.3468919,0.451768894 L70.3468919,0.451768894 Z M74.8759156,11.7285946 L72.2758433,5.51554912 L69.6752158,11.7285946 L74.8759156,11.7285946 L74.8759156,11.7285946 Z"></path>
                    <path d="M85.7251917,0.589039226 L94.8118388,0.589039226 C97.0481674,0.589039226 98.8099635,1.19112593 99.9281278,2.28602672 C100.823048,3.16156679 101.270092,4.22874169 101.270092,5.54218772 L101.270092,5.59736767 C101.270092,7.75889971 100.095839,8.9628013 98.6977861,9.73015604 C100.962437,10.5782421 102.360212,11.8650495 102.360212,14.4373052 L102.360212,14.4924852 C102.360212,17.9960046 99.4527622,19.7470848 95.0350829,19.7470848 L85.724914,19.7470848 L85.724914,0.589039226 L85.7251917,0.589039226 Z M93.8891519,8.33407599 C95.790059,8.33407599 96.9923564,7.73226111 96.9923564,6.30927064 L96.9923564,6.25409069 C96.9923564,4.99500915 95.9860918,4.283378 94.1687624,4.283378 L89.9187938,4.283378 L89.9187938,8.33407599 L93.8891519,8.33407599 L93.8891519,8.33407599 Z M95.0353606,16.052746 C96.9365454,16.052746 98.082754,15.3962948 98.082754,13.9730325 L98.082754,13.9181244 C98.082754,12.6315888 97.1045338,11.8378672 94.8956941,11.8378672 L89.9190715,11.8378672 L89.9190715,16.0530178 L95.0353606,16.0530178 L95.0353606,16.052746 Z"></path>
                    <path d="M105.912403,0.589039226 L114.859384,0.589039226 C117.347834,0.589039226 119.277063,1.27240084 120.563216,2.53202602 C121.653614,3.59947274 122.240601,5.10455359 122.240601,6.9108137 L122.240601,6.96599366 C122.240601,10.0585176 120.534894,12.0012325 118.046722,12.9047703 L122.827867,19.7473566 L117.795433,19.7473566 L113.601553,13.6164015 L110.218461,13.6164015 L110.218461,19.7473566 L105.912959,19.7473566 L105.912403,0.589039226 L105.912403,0.589039226 Z M114.579218,9.89460862 C116.676158,9.89460862 117.878178,8.79970783 117.878178,7.1845389 L117.878178,7.13017441 C117.878178,5.32364248 116.592025,4.39292244 114.495363,4.39292244 L110.217628,4.39292244 L110.217628,9.89460862 L114.579218,9.89460862 L114.579218,9.89460862 Z"></path>
                    <path d="M126.323137,0.589039226 L130.628639,0.589039226 L130.628639,19.7473566 L126.323137,19.7473566 L126.323137,0.589039226 L126.323137,0.589039226 Z"></path>
                    <path d="M134.655363,10.2226983 L134.655363,10.1683338 C134.655363,4.7218276 138.849243,0.260134075 144.860452,0.260134075 C148.550644,0.260134075 150.759484,1.46485113 152.576813,3.2162031 L149.837075,6.30927064 C148.3274,4.96809873 146.789404,4.14692314 144.832686,4.14692314 C141.533448,4.14692314 139.157453,6.82899515 139.157453,10.1131539 L139.157453,10.1683338 C139.157453,13.4524925 141.477637,16.1894727 144.832686,16.1894727 C147.069014,16.1894727 148.439022,15.3139326 149.977019,13.9453066 L152.716758,16.6545609 C150.703395,18.7617284 148.467067,20.0765336 144.692464,20.0765336 C138.932543,20.0762617 134.655363,15.7243845 134.655363,10.2226983 L134.655363,10.2226983 Z"></path>
                </g>
                <path d="M27.1487822,0.977272727 L22.675921,3.49516303 L22.675921,8.54363673 L27.1474654,11.0606346 L31.6281265,8.54363673 L31.6281265,3.49516303 L27.1487822,0.977272727 L27.1487822,0.977272727 Z M29.3909868,7.27472552 L27.1540497,8.54353756 L24.9133646,7.27472552 L24.9133646,4.76506588 L27.1495926,3.49506387 L29.3909868,4.76506588 L29.3909868,7.27472552 L29.3909868,7.27472552 Z" id="Shape" sketch:type="MSShapeGroup"></path>
                <path d="M4.17808309,23.712563 L15.792719,32.3219755 L27.4070798,25.7939001 L15.2651994,17.5812866 L4.17808309,23.712563 Z" id="Shape" opacity="0.700000048" sketch:type="MSShapeGroup"></path>
                <path d="M15.655926,7.16455136 L-3.55271368e-15,15.9998266 L-3.55271368e-15,33.6676995 L15.655926,42.503173 L31.3112442,33.6676995 L31.3112442,15.9997274 L15.655926,7.16455136 L15.655926,7.16455136 Z M26.8198456,31.1137133 L26.9141529,31.1115316 L15.7100185,37.4113644 L4.49139854,31.1134158 L4.49139854,28.5846174 L6.79245651,27.3258209 L15.7783938,32.3662623 L22.5036905,28.5897739 L18.0516965,26.0599838 L22.4286296,23.5249381 L26.8200482,26.0660329 L26.8200482,31.1137133 L26.8198456,31.1137133 Z M26.8198456,21.0375905 L24.674886,22.2975768 L15.8012869,17.2581271 L9.06383452,21.0308473 L13.5788352,23.5525058 L8.96902072,26.0690078 L4.49139854,23.5186907 L4.49139854,18.5086929 L4.57557618,18.5121636 L15.7100185,12.2121326 L26.8198456,18.5086929 L26.8198456,21.0375905 L26.8198456,21.0375905 Z" id="Shape" sketch:type="MSShapeGroup"></path>
            </g>
        </g>
    </g>
</svg>